<?xml version="1.0" encoding="UTF-8"?>
<svg width="1920px" height="2131px" viewBox="0 0 1920 2131" version="1.1" xmlns="http://www.w3.org/2000/svg" xmlns:xlink="http://www.w3.org/1999/xlink">
    <!-- Generator: Sketch 55.1 (78136) - https://sketchapp.com -->
    <title>About</title>
    <desc>Created with Sketch.</desc>
    <g id="About" stroke="none" stroke-width="1" fill="none" fill-rule="evenodd">
        <rect fill="#FFFFFF" x="0" y="0" width="1920" height="2131"></rect>
        <g id="Group-2" transform="translate(1048.000000, 955.000000)">
            <g id="castello" style="mix-blend-mode: multiply;"></g>
        </g>
        <path d="M-83,931 L652.922296,931 C652.922296,931 713.789203,777.11082 520.302966,746.302404 C520.302966,746.302404 358.093426,484.621995 126.354562,746.302404 C126.124586,745.920166 -83,745.920166 -83,931 Z" id="Path-Copy-2" fill="#EDF1F1"></path>
        <path d="M1426,1319 L1606.77017,1319 C1606.77017,1319 1621.72137,1281.16678 1574.19388,1273.59262 C1574.19388,1273.59262 1534.34912,1209.25923 1477.42535,1273.59262 C1477.36886,1273.49865 1426,1273.49865 1426,1319 Z" id="Path-Copy-3" fill="#EDF1F1"></path>
        <path d="M-37,1699 L292.930264,1699 C292.930264,1699 320.218247,1629.97994 233.474081,1616.16221 C233.474081,1616.16221 160.751952,1498.79724 56.8582866,1616.16221 C56.7551834,1615.99077 -37,1615.99077 -37,1699 Z" id="Path-Copy-5" fill="#EDF1F1"></path>
        <path d="M1553,1417 L1881.94245,1417 C1881.94245,1417 1909.14873,1347.97994 1822.66428,1334.16221 C1822.66428,1334.16221 1750.15988,1216.79724 1646.57727,1334.16221 C1646.47448,1333.99077 1553,1333.99077 1553,1417 Z" id="Path-Copy-4" fill="#EDF1F1"></path>
        <path d="M1620,326 L1898.56388,326 C1898.56388,326 1921.60343,267.71639 1848.36434,256.048087 C1848.36434,256.048087 1786.96422,156.939892 1699.24562,256.048087 C1699.15857,255.903319 1620,255.903319 1620,326 Z" id="Path-Copy" fill="#EDF1F1"></path>
    </g>
</svg>