<?xml version="1.0" encoding="UTF-8"?>
<svg width="417px" height="1115px" viewBox="0 0 417 1115" version="1.1" xmlns="http://www.w3.org/2000/svg" xmlns:xlink="http://www.w3.org/1999/xlink">
    <!-- Generator: Sketch 55.2 (78181) - https://sketchapp.com -->
    <title>savonarola</title>
    <desc>Created with Sketch.</desc>
    <defs>
        <linearGradient x1="0%" y1="49.9948576%" x2="100%" y2="49.9948576%" id="linearGradient-1">
            <stop stop-color="#447BA6" offset="0%"></stop>
            <stop stop-color="#5FBDD3" offset="100%"></stop>
        </linearGradient>
        <linearGradient x1="0%" y1="50.0093686%" x2="100%" y2="50.0093686%" id="linearGradient-2">
            <stop stop-color="#447BA6" offset="0%"></stop>
            <stop stop-color="#5FBDD3" offset="100%"></stop>
        </linearGradient>
        <linearGradient x1="0.0328472893%" y1="50.1247775%" x2="99.9871487%" y2="50.1247775%" id="linearGradient-3">
            <stop stop-color="#447BA6" offset="0%"></stop>
            <stop stop-color="#5FBDD3" offset="100%"></stop>
        </linearGradient>
        <linearGradient x1="0.17101693%" y1="49.9649107%" x2="100%" y2="49.9649107%" id="linearGradient-4">
            <stop stop-color="#447BA6" offset="0%"></stop>
            <stop stop-color="#5FBDD3" offset="100%"></stop>
        </linearGradient>
        <linearGradient x1="-0.0538213132%" y1="50%" x2="100%" y2="50%" id="linearGradient-5">
            <stop stop-color="#447BA6" offset="0%"></stop>
            <stop stop-color="#5FBDD3" offset="100%"></stop>
        </linearGradient>
        <linearGradient x1="0%" y1="50%" x2="100%" y2="50%" id="linearGradient-6">
            <stop stop-color="#447BA6" offset="0%"></stop>
            <stop stop-color="#5FBDD3" offset="100%"></stop>
        </linearGradient>
        <linearGradient x1="-0.0358551452%" y1="50.0063735%" x2="100%" y2="50.0063735%" id="linearGradient-7">
            <stop stop-color="#447BA6" offset="0%"></stop>
            <stop stop-color="#5FBDD3" offset="100%"></stop>
        </linearGradient>
        <linearGradient x1="0%" y1="49.9794036%" x2="99.9174831%" y2="49.9794036%" id="linearGradient-8">
            <stop stop-color="#447BA6" offset="0%"></stop>
            <stop stop-color="#5FBDD3" offset="100%"></stop>
        </linearGradient>
        <linearGradient x1="0.146842154%" y1="50.1080096%" x2="99.9995067%" y2="50.1080096%" id="linearGradient-9">
            <stop stop-color="#447BA6" offset="0%"></stop>
            <stop stop-color="#5FBDD3" offset="100%"></stop>
        </linearGradient>
        <linearGradient x1="-0.00655334534%" y1="49.524832%" x2="100%" y2="49.524832%" id="linearGradient-10">
            <stop stop-color="#447BA6" offset="0%"></stop>
            <stop stop-color="#5FBDD3" offset="100%"></stop>
        </linearGradient>
        <linearGradient x1="-0.0296667576%" y1="50.0332564%" x2="100%" y2="50.0332564%" id="linearGradient-11">
            <stop stop-color="#447BA6" offset="0%"></stop>
            <stop stop-color="#5FBDD3" offset="100%"></stop>
        </linearGradient>
        <linearGradient x1="0.134267799%" y1="49.674425%" x2="100%" y2="49.674425%" id="linearGradient-12">
            <stop stop-color="#447BA6" offset="0%"></stop>
            <stop stop-color="#5FBDD3" offset="100%"></stop>
        </linearGradient>
        <linearGradient x1="0.50973399%" y1="50.2182051%" x2="100%" y2="50.2182051%" id="linearGradient-13">
            <stop stop-color="#447BA6" offset="0%"></stop>
            <stop stop-color="#5FBDD3" offset="100%"></stop>
        </linearGradient>
    </defs>
    <g id="grafica" stroke="none" stroke-width="1" fill="none" fill-rule="evenodd">
        <g id="CF-Sponsor" transform="translate(-1503.000000, -1922.000000)">
            <g id="testo-CFS" transform="translate(231.000000, 619.000000)">
                <g id="savonarola" transform="translate(1272.000000, 1303.000000)">
                    <polygon id="Path" fill="#01A0C6" points="532 1085.39788 532 1115 332 1114.71353 332 1079 505.137192 1084.53846 505.137192 1084.53846"></polygon>
                    <polygon id="Path" fill="#01A0C6" points="530 806.405502 530 833 504.648091 825.392283 332 773.373705 332 742 504.648091 798.407646 504.648091 798.147553"></polygon>
                    <polygon id="Path" fill="#01A0C6" points="505 1084 505 1084 332 1078"></polygon>
                    <polygon id="Path" fill="url(#linearGradient-1)" points="505 825.013062 505 1084 332 1078.45233 332 774"></polygon>
                    <polygon id="Path" fill="#000000" points="505 798.741787 505 799 332 743"></polygon>
                    <polygon id="Path" fill="url(#linearGradient-2)" points="371.846878 645.757167 450.038788 678.598651 505 701.731872 505 800 332 744.666105 332 629"></polygon>
                    <path d="M448,644.895928 L448,676 L369.610484,643.628959 C365.32977,631.379249 362.1146,618.79055 360,606 L448,644.895928 Z" id="Path" fill="#01A0C6"></path>
                    <path d="M426.738944,173.004266 C426.738944,175.45472 426.390328,177.905174 426.263559,180.355628 C426.263559,181.139773 426.263559,181.956591 426.263559,182.773409 C398.881373,196.986043 370.358263,159.641123 370.358263,159.641123 C369.027185,155.491687 369.851186,150.721469 366.52349,147.160143 C365.495816,145.724666 364.96063,143.977486 365.002257,142.193889 C381.228737,162.026231 428.386946,146.898761 424.235249,132 C425.668051,137.737323 426.01241,143.705955 425.249404,149.577924 C425.04571,154.289183 425.215299,159.009722 425.756481,163.69254 C426.011041,165.510088 426.370864,167.310304 426.834021,169.083539 C426.967728,169.627617 427.021148,170.189359 426.992483,170.749848 C426.897406,171.468648 426.802328,172.252793 426.738944,173.004266 Z" id="Path" fill="#0C286C"></path>
                    <path d="M410.250526,211.388258 L410.250526,211.388258 C410.250526,211.388258 416.849547,224.488466 401.462563,231.101857 C401.462563,231.101857 391.161653,246.638578 380.957314,258.821139 C373.006299,268.314044 365.087474,275.750152 362.190344,272.016276 C345.141137,249.395257 334.159416,222.91921 330.257523,195.028819 L330,194.395958 C343.10147,189.58622 356.717985,180.219887 369.529742,163.702233 C370.366691,162.658013 371.428972,160.980933 371.107069,160 C371.107069,160 400.078378,196.167967 427.890835,182.403255 C427.852216,184.380807 427.403103,186.329766 426.571031,188.130641 C426.331393,188.640839 426.062715,189.137366 425.766272,189.617863 C425.518877,190.021595 425.250261,190.412388 424.961513,190.788655 L424.703991,191.105085 C424.703991,191.105085 436.582227,209.711178 415.24003,211.1984 C413.501751,211.388258 411.827853,211.388258 410.250526,211.388258 Z" id="Path" fill="url(#linearGradient-3)"></path>
                    <path d="M424.721336,133.356876 C429.069606,148.209964 381.334556,163.324205 364.964599,143.54185 C364.661218,136.142639 363.524025,128.803739 361.575506,121.67027 C361.272638,120.538984 361.079868,119.37994 361,118.20999 C361,118.20999 401.221496,165.380786 400.582044,108.05766 C400.576269,103.69627 400.352169,99.3380314 399.91062,95 C404.166066,96.324494 407.659379,99.4512918 409.502392,103.585411 C413.562909,111.093566 417.783288,118.503788 421.843805,126.044586 C422.989182,128.185413 423.921063,130.438285 424.625418,132.769281 L424.721336,133.356876 Z" id="Path" fill="#01A0C6"></path>
                    <path d="M400.992389,107 C401.637489,163.507141 361.060671,117.007814 361.060671,117.007814 C360.725959,113.877894 361.78754,110.75945 363.963623,108.480255 C363.963623,108.480255 400.863369,153.821122 400.992389,107 Z" id="Path" fill="#0C286C"></path>
                    <path d="M398.331243,97.0143194 C398.771038,101.280849 398.994248,105.567252 399,109.856755 C399,156.571116 362.44127,111.301529 362.44127,111.301529 C363.390216,109.890451 363.950671,108.250727 364.065394,106.549828 C364.401323,103.145823 363.236918,99.7649068 360.880836,97.3032742 C359.209045,95.5835227 358.907451,92.9395116 360.148387,90.8820562 C361.12305,89.3978881 361.369284,87.5452386 360.816565,85.8547325 C360.263845,84.1642265 358.973142,82.8223414 357.31413,82.2134119 C352.439219,79.6214735 347.983091,76.2980467 344.098213,72.3568423 C338.91662,66.1781526 331.769864,62.0025301 323.876267,60.5418013 C321.474654,60.0376288 319.172054,59.1372587 317.061312,57.8769958 C315.215795,57.1557378 314.134851,55.2183388 314.48182,53.2537189 C314.832121,51.7126265 316.519937,51.4557778 319.417885,52.2905362 C319.952625,52.5138869 320.507071,52.6858813 321.073856,52.8042336 C324.513179,53.2216128 327.952502,53.671098 331.423671,53.7674163 C332.21981,53.7674163 333.398097,52.6437031 333.812089,51.8089448 C334.226082,50.9741865 333.111487,49.9467916 332.410884,49.5294124 C328.302803,47.4104105 324.099186,45.4198329 319.895569,43.4613614 C316.488092,41.888163 312.953232,40.5397073 309.5776,38.8701906 C308.049012,38.0996444 306.393042,36.7832947 307.221027,34.728505 C308.049012,32.6737152 309.800519,33.0910944 311.392798,33.4121553 C313.674026,33.7978196 315.920998,34.366842 318.112216,35.1137781 C322.952745,36.9759313 328.207267,37.7785835 332.50642,41.0534047 C333.330693,41.5044292 334.325331,41.5044292 335.149604,41.0534047 C335.542264,40.1980159 335.542264,39.211882 335.149604,38.3564931 C334.729943,37.4353213 334.134834,36.6062622 333.398097,35.9164303 C327.258953,28.7111412 320.312807,22.2468638 312.698467,16.6527764 C311.582591,15.7860522 310.660283,14.6921084 309.991593,13.4421674 C309.606454,12.6978112 309.606454,11.8106729 309.991593,11.0663167 C310.732709,10.4674461 311.653148,10.1392624 312.60293,10.1352401 C313.329824,10.1725056 314.033564,10.4053091 314.641048,10.809468 C323.459803,14.967421 331.232619,21.0806908 337.378795,28.6925601 C338.397854,30.0089098 339.544295,31.2289412 340.563353,32.4810787 C341.373147,30.0479917 340.970048,27.3705552 339.480603,25.2893146 C336.136817,19.5102184 332.633803,13.8274405 329.290016,8.01623818 C328.381101,6.54972979 327.744436,4.92872844 327.411127,3.23243079 C327.324434,2.00856154 327.821143,0.816245872 328.748642,0.0218217968 C329.942539,-0.107837487 331.126003,0.345557622 331.9332,1.24185321 C338.342842,8.13705263 343.708224,15.9480423 347.855992,24.4224501 C348.680463,26.2630571 349.977803,27.8481185 351.613771,29.013621 C354.655204,30.9863203 357.275305,33.5514465 359.320402,36.5585521 C359.964583,37.7439592 360.780286,38.8260321 361.740667,39.7691611 C366.929311,44.6600834 370.928799,50.6919113 373.427996,57.3954045 C374.701819,60.2849525 376.294099,63.0781824 377.695304,65.9356244 C379.09651,68.7930664 380.434024,71.3615536 381.580466,74.1868895 C382.217377,75.7600879 382.854289,76.9801193 384.765024,77.3974985 C385.88286,77.5346216 386.901624,78.1116429 387.599281,79.002803 C389.521735,82.7304753 391.119999,86.6191713 392.376119,90.6252075 C392.974718,93.7336051 395.291203,96.2189073 398.331243,97.0143194 L398.331243,97.0143194 Z" id="Path" fill="url(#linearGradient-4)"></path>
                    <path d="M399,340 L399,516.024861 C399,516.024861 390.578579,523.155864 385.80644,522.997397 C381.034302,522.838931 399,340 399,340 Z" id="Path" fill="#0C286C"></path>
                    <path d="M400,321.051452 L400,338.80673 C400,338.80673 381.144329,522.702952 386.128785,522.862335 L386.128785,555.057721 C386.128785,555.057721 374.848174,564.015051 372.355947,559.934844 C369.863719,555.854637 381.275499,259.752711 381.275499,259.752711 L379.111196,258.923919 C389.506409,246.683297 400,231 400,231 L400,321.051452 Z" id="Path" fill="#EDF1F1"></path>
                    <path d="M378.843641,260 L381,260.826744 C381,260.826744 369.630105,556.228646 372.113186,560.266971 L372.113186,594.863018 L359.305718,601 C355.971767,579.678351 353.866569,558.191811 353,536.641179 C356.38514,542.553955 360.127206,548.266373 364.206534,553.748415 L359.795799,392.692372 L359.795799,273.355091 C362.736289,277.107236 370.610268,269.539351 378.843641,260 Z" id="Path" fill="#01A0C6"></path>
                    <path d="M372,644 L332,627.556516 L332,593 L362.505213,606.450896 C364.573624,619.210334 367.750143,631.772535 372,644 Z" id="Path" fill="#01A0C6"></path>
                    <path d="M352.505618,531.699885 C351.587334,521.21883 350.510725,499.651433 342.372829,500.51158 C332.271706,501.594729 322.962206,494.777265 323.152196,490.094241 C323.342186,485.411217 323.152196,436.319106 323.152196,436.319106 C315.58427,440.205697 302,431.636081 302,431.636081 L303.203269,330.393558 L304.723187,199.396308 C312.740218,199.327049 320.682587,197.838919 328.186925,195 L328.440245,195.637146 C332.278455,223.716416 343.080944,250.371763 359.85189,273.145976 L359.85189,392.674594 L364,554 C360.046421,548.507705 356.419707,542.784603 353.138917,536.860768 C352.754771,535.166467 352.542584,533.437308 352.505618,531.699885 Z" id="Path" fill="#0C286C"></path>
                    <path d="M358.364964,171.916958 C359.772316,171.742878 361.075308,171.114995 362.058394,170.137176 C364.202472,168.241729 366.188998,166.189816 368,164 C355.153285,179.987345 341.632117,189.101052 328.560584,193.765306 C320.949167,196.499835 312.893469,197.933245 304.762044,198 C295.124958,198.00952 285.560226,196.410266 276.49927,193.274332 L276.49927,193.274332 C269.978728,191.126241 263.764276,188.208994 258,184.590227 C259.252555,185.019829 280.80292,192.507184 294.548905,187.045097 C297.760584,185.694919 301.293431,184.436797 304.537226,183.270734 C307.781022,182.10467 310.960584,180.938607 313.883212,180.01803 C319.6,178.08482 323.518248,176.949442 323.518248,176.949442 L358.364964,171.916958 Z" id="Path" fill="#EDF1F1"></path>
                    <path d="M353.320242,532.377675 C353.387405,534.097369 353.627987,535.805708 354.038268,537.47629 C354.86163,558.848811 356.87318,580.157967 360.063444,601.303399 C360.344411,603.191775 360.656596,605.080151 361,607 L331.311178,593.561057 L330,594.190516 L330,532 C339.209466,532.094419 348.48137,532.251783 353.320242,532.377675 Z" id="Path" fill="#0C286C"></path>
                    <polygon id="Path" fill="#EDF1F1" points="332 1114.55634 332 1114.61972 72 1115 72 1088 94.2528283 1087.20775 94.2528283 1087.23944 332 1079"></polygon>
                    <path d="M332,774 L332,1077.82463 L93,1086 L93,849.327896 L332,774 Z M259.12944,1049.38581 L259.12944,842.170473 L155.097551,870.291191 L155.097551,1056.12969 L259.12944,1049.38581 Z" id="Shape" fill="url(#linearGradient-5)" fill-rule="nonzero"></path>
                    <polygon id="Path" fill="#EDF1F1" points="332 742 332 772.673699 94.2528283 847.975246 72 855 72 831.764276 91.5351697 825.025598"></polygon>
                    <polygon id="Path" fill="url(#linearGradient-6)" points="243.022337 668.873674 266.731951 658.14947 307.258476 639.78785 329.627842 629.636451 331 629 331 743.87946 91 827 91 737.769527 132.866773 718.803279"></polygon>
                    <polygon id="Path" fill="#EDF1F1" points="330.86 628.389039 329.14 629 329.18 595.610961 330.86 595"></polygon>
                    <polygon id="Path" fill="#EDF1F1" points="332 1079 93 1088 93 1087.96538"></polygon>
                    <path d="M330,532.026552 L330,594.019473 L306.290015,605 C305.927275,576.262391 305.79537,546.144373 306.553826,532.497146 L306.553826,532.308909 C311.203489,531.995179 320.535792,531.963806 330,532.026552 Z" id="Path" fill="#01A0C6"></path>
                    <path d="M330,594 L330,629.607649 L308.49162,640 C308.307263,629.542493 308.122905,617.61898 308,605.434844 L330,594 Z" id="Path" fill="#EDF1F1"></path>
                    <path d="M311.766755,159.02501 L315,178.836254 C312.219409,179.787194 309.018496,180.928322 305.591256,182.196241 C305.591256,182.196241 296.505836,118.419885 291.591303,109.576145 C286.67677,100.732406 270.478211,89.1943377 257.02791,91.318103 C243.57761,93.4418684 229.286665,113.062924 226.829398,122.445529 C224.372132,131.828135 242.736966,184.161517 242.736966,184.161517 L242.736966,185.334342 L235.720823,186 L231.420607,174.240046 C229.189668,166.949508 227.055726,159.627272 224.954116,152.273338 C223.111166,145.61676 221.720871,138.896786 219.780923,132.240208 C217.355989,123.237979 220.847894,116.105931 226.538406,109.259166 C231.609053,102.705452 237.447337,96.7583164 243.933267,91.539989 C247.231447,88.6973366 250.855438,86.2401073 254.732306,84.2177532 C259.230668,81.7005926 264.646521,81.3047031 269.475905,83.1400215 C274.164111,84.820015 279.013979,86.3098206 283.605187,87.9898141 C294.179075,91.7796592 301.980779,100.689029 304.20096,111.509723 L311.766755,159.02501 Z" id="Path" fill="#EDF1F1"></path>
                    <path d="M306,640.034799 L266,658 L266,625.992674 L305.496063,607 C305.622047,618.644689 305.779528,630.040293 306,640.034799 Z" id="Path" fill="#EDF1F1"></path>
                    <path d="M301.689382,512 C301.689382,512 295.825674,533.242985 304.415214,532.196689 L306,532.196689 L306,532.386925 C305.302694,546.179012 305.429477,576.585017 305.746434,605.659371 L266,625 L266,512 L301.689382,512 Z" id="Path" fill="#EDF1F1"></path>
                    <path d="M306,199 L304.44846,330.921682 L303.220158,330.921682 C283.114788,332.686199 276.359125,304.133111 275.486383,295.888006 C274.613642,287.642901 264.593281,282.156858 264.593281,282.156858 C264.593281,282.156858 236.406974,280.616916 253.506236,260.56559 L306,199 Z" id="Path" fill="#01A0C6"></path>
                    <path d="M303.19792,330.502231 L301.958049,431.904398 C301.958049,431.904398 315.95554,440.476737 323.753675,436.58891 C323.753675,436.58891 323.949444,485.728489 323.753675,490.381134 C323.557906,495.033779 333.150592,501.885277 343.558982,500.801785 C351.944425,499.941364 353.053783,521.515615 354,532 C348.910004,532 339.252062,531.713193 329.692004,531.649458 C320.131947,531.585723 311.061312,531.649458 306.395482,531.936265 L304.764073,531.936265 C295.921836,533.019758 301.958049,511.636711 301.958049,511.636711 L265.283973,511.636711 L265.283973,481.458254 C266.683962,479.725425 267.493976,477.608322 267.600574,475.403442 C267.600574,464.472913 263,282 263,282 C263,282 273.114736,287.449331 273.995697,295.639261 C274.876658,303.829191 281.695948,332.191205 301.990678,330.438496 L303.19792,330.502231 Z" id="Path" fill="url(#linearGradient-7)"></path>
                    <path d="M269.815599,104.592091 C271.902052,105.450071 273.182004,107.536852 272.97892,109.749443 C272.434712,109.971524 271.858218,110.107832 271.270727,110.153332 C266.826873,109.537938 262.301613,110.413694 258.42764,112.638803 C257.832772,113.000093 257.119076,113.122482 256.434747,112.980555 C254.062256,112.048504 252.03773,113.912607 249.443806,113.477649 C245.99681,113.43274 242.565916,113.947107 239.289543,115 C239.099744,114.533974 238.973211,114.409701 239.004844,114.316496 C241.178381,106.963867 247.945949,101.837468 255.738817,101.640595 C256.011526,101.679693 256.288571,101.679693 256.56128,101.640595 C261.622595,99.776492 265.70328,102.355168 269.815599,104.592091 Z" id="Path" fill="#01A0C6"></path>
                    <polygon id="Path" fill="#EDF1F1" points="266 625 266 658.136996 242 669 242 636.63663"></polygon>
                    <path d="M266,510.030852 L266,623.491362 L242,635 L242,499.127931 C252.447439,491.827437 261.827493,485.706499 266,480 L266,510.030852 Z" id="Path" fill="#0C286C"></path>
                    <path d="M257.645161,136.090086 C259.094608,135.969971 260.550553,135.969971 262,136.090086 C258.096774,141.756216 257.741935,142.101711 254.709677,143 C253.709677,142.067162 252.903226,140.788828 251.774194,140.339683 C250.645161,139.890539 249.580645,140.546981 248,140.788828 C250.872164,138.516093 254.15824,136.915247 257.645161,136.090086 Z" id="Path" fill="#0C286C"></path>
                    <polygon id="Path" fill="#0C286C" points="259 842 259 1049.25483 149 1056 149 870.157895"></polygon>
                    <path d="M242.314155,187.719005 C247.350305,187.197164 252.578921,186.644627 258,186 L258,186 C256.684827,186.70602 208.119654,212.552486 165.937882,204.417909 C153.029505,202.060482 141.185542,195.975634 132,186.982288 C132,186.982288 163.403768,194.901989 235.321283,188.394328 L242.314155,187.719005 Z" id="Path" fill="#01A0C6"></path>
                    <path d="M250.20433,113.439668 C252.761573,113.887625 254.726285,111.967809 257.096413,112.927717 C257.771065,113.073886 258.474668,112.947839 259.061124,112.575751 C262.880315,110.284138 267.341584,109.382208 271.722598,110.015995 C272.301781,109.969135 272.870123,109.828753 273.406636,109.600034 C273.606848,107.321314 272.344996,105.172164 270.288047,104.288541 C266.23388,101.984761 262.179714,99.2970176 257.158784,101.088847 C256.889931,101.129113 256.616804,101.129113 256.347951,101.088847 C248.665281,101.291604 241.993413,106.571219 239.850612,114.143601 C239.850612,114.143601 239.850612,114.399577 240.131285,114.847534 C243.390078,113.810394 246.793893,113.334658 250.20433,113.439668 Z M255.412374,116.639363 C250.952791,117.599271 253.229362,123.038752 249.954842,124.574606 C249.611798,124.574606 249.268753,124.574606 249.050452,124.574606 C244.434939,121.59889 242.127183,122.686786 241.285163,128.09427 C240.50246,132.690933 241.378269,137.42273 243.748849,141.405 C245.569173,144.999987 247.193344,148.696002 248.613849,152.475943 C249.861285,155.355668 251.077535,158.299387 252.449714,161.147116 C252.761573,161.819052 253.603592,162.235012 254.352054,162.906948 L259.965515,162.906948 C264.307585,162.052403 268.573682,160.832396 272.720546,159.259296 C277.585546,156.987513 282.263431,153.947803 282.980706,147.612407 C283.252037,146.493359 283.315515,145.33189 283.167822,144.188734 C281.234296,137.789345 282.045129,131.005992 281.73327,124.414621 C281.73327,123.678691 281.73327,122.942761 281.73327,122.238828 C281.296668,119.039134 279.612629,117.50328 276.525226,118.047228 C274.356127,118.614717 272.082915,118.614717 269.913816,118.047228 C268.66638,117.631268 266.795226,118.879149 265.329489,119.615079 C264.48747,120.031039 263.95731,121.086938 263.115291,121.630886 C260.215002,123.518706 258.156733,122.814773 256.878111,119.551085 L255.412374,116.639363 Z M290.496507,110.687931 C295.267949,119.647076 304,183.992936 304,183.992936 C300.88141,185.20882 297.575705,186.520694 294.301186,187.92856 C280.953623,193.624017 259.996701,185.816762 258.811637,185.368804 L258.811637,185.368804 C253.541221,186.04074 248.457919,186.648682 243.561734,187.160633 L243.561734,185.976746 C243.561734,185.976746 225.848145,133.181784 228.218273,123.678691 C230.588401,114.175598 244.403753,94.4014848 257.3459,92.2576894 C270.288047,90.1138939 285.569136,101.792779 290.340578,110.719928 L290.496507,110.687931 Z" id="Shape" fill="#0C286C" fill-rule="nonzero"></path>
                    <path d="M255.659004,147.784525 C255.033296,147.996689 254.375296,148.053025 253.729069,147.949761 C253.066554,147.718431 252.173599,147.15663 252.000769,146.561781 C251.982199,145.721216 252.300701,144.917318 252.864919,144.380669 C256.502892,141.683797 261.074579,141.249816 265.049435,143.224019 C265.337485,143.422302 265.48151,143.918009 266,144.810282 C265.272791,145.330184 264.500523,145.76211 263.6956,146.099121 C261.016735,146.727017 258.33787,147.255771 255.659004,147.784525 Z" id="Path" fill="#0C286C"></path>
                    <path d="M250.160027,149.601108 C250.347048,150.174515 251.313323,150.716066 252.030237,150.939058 C252.729525,151.0386 253.441553,150.984295 254.118638,150.779778 C257.017463,150.270083 259.916288,149.760388 262.815114,149.155125 C263.686128,148.830261 264.521808,148.413904 265.308727,147.912742 C264.747664,147.052632 264.622983,146.574792 264.280111,146.383657 C259.978883,144.480614 255.031817,144.898952 251.095132,147.498615 C250.484587,148.01592 250.139933,148.790842 250.160027,149.601108 L250.160027,149.601108 Z M250.970452,140.936288 C252.061407,141.350416 252.840661,142.529086 253.806936,143.389197 C256.705762,142.529086 256.923953,142.17867 260.851393,137.018006 C259.450829,136.907255 258.043986,136.907255 256.643421,137.018006 C253.250666,137.82253 250.063499,139.353457 247.292372,141.509695 C248.882051,141.127424 250.097687,140.617729 251.001622,140.936288 L250.970452,140.936288 Z M247.604074,153.67867 C246.184286,149.915385 244.560934,146.235657 242.741528,142.65651 C240.372144,138.691788 239.496777,133.980841 240.279086,129.404432 C241.12068,124.020776 243.396102,123.033241 248.040456,125.900277 C248.258647,125.900277 248.601519,125.900277 248.944391,125.900277 C252.061407,124.498615 249.941836,118.987535 254.39917,118 L255.645976,120.83518 C257.048633,124.020776 259.105864,124.785319 261.880009,122.905817 C262.721603,122.396122 263.220326,121.344875 264.09309,120.898892 C265.558088,120.166205 267.428298,118.955679 268.675104,119.33795 C270.843109,119.902939 273.115174,119.902939 275.283179,119.33795 C278.400195,118.796399 280.021044,120.261773 280.488596,123.51108 C280.488596,124.211911 280.488596,124.944598 280.488596,125.677285 C280.800298,132.239612 279.989874,138.865651 281.922424,145.364266 C282.070043,146.502385 282.006597,147.658736 281.735403,148.772853 C281.018489,155.144044 276.342965,158.138504 271.480419,160.368421 C267.335647,161.934589 263.071702,163.149221 258.731822,164 L253.121193,164 C252.373109,163.331025 251.562685,162.916898 251.219813,162.247922 C250.097687,159.603878 248.882051,156.67313 247.635244,153.806094 L247.604074,153.67867 Z" id="Shape" fill="#01A0C6" fill-rule="nonzero"></path>
                    <polygon id="Path" fill="#EDF1F1" points="209.337775 651.902837 242 636 242 667.996891 132 718 132 689.572483 167.115875 672.458609"></polygon>
                    <path d="M209.341287,651.482153 L167,672 L167,663.888293 C167,663.888293 184.319983,641.907157 190.295697,598.67653 C190.295697,598.67653 226.533447,557.32273 224.200682,545.552802 C221.867916,533.782874 204.803579,530.760866 224.200682,513.742186 C229.885713,508.85162 235.827153,504.264456 242,500 L242,635.672277 L209.341287,651.482153 Z" id="Path" fill="#01A0C6"></path>
                    <path d="M225.574069,513.70454 C206.271353,530.891416 223.137496,534.02211 225.574069,545.650405 C228.010641,557.2787 192,599 192,599 C193.801642,585.472174 194.384165,571.807255 193.740409,558.173184 C191.525343,507.634826 191.936712,417.611378 192.822739,358.064285 C193.044245,343.433079 193.297396,330.654733 193.518902,320.783461 L193.518902,320.783461 C193.518902,320.783461 198.613554,231.910064 277.153458,193 L277.153458,193 C286.080971,196.264698 295.504842,197.929618 305,197.919663 L253.483898,259.223778 C236.744329,279.189944 264.337721,280.723346 264.337721,280.723346 C264.337721,280.723346 268.799496,463.645369 268.799496,474.602801 C268.696114,476.813108 267.910538,478.935422 266.552786,480.672516 C262.470736,486.486663 253.262391,492.620269 243.073089,499.840035 C237.002174,504.147033 231.161019,508.774991 225.574069,513.70454 Z" id="Path" fill="#0C286C"></path>
                    <path d="M192.508513,305.806211 C193.84336,271.639505 178.238365,261.065608 257.69353,184 L257.69353,184 C263.397731,187.744664 269.547415,190.763402 276,192.986225 C197.085131,231.693673 192,320 192,320 L192,320 C192.222474,314.347887 192.381385,309.521364 192.508513,305.806211 Z" id="Path" fill="#01A0C6"></path>
                    <path d="M258,185 C178.555174,262.471657 194.158138,273.101266 192.823464,307.447991 C192.823464,311.055036 192.537463,315.90699 192.378573,321.748487 C192.12435,331.643919 191.901904,344.412218 191.679459,359 L190.853233,359 C190.853233,332.378096 181.319854,308.629059 171.786474,291.583379 L173.788484,290.466153 C171.500473,286.09301 170.00691,281.36874 168.068457,276.835993 C166.196259,273.06594 165.572731,268.793472 166.288892,264.642267 C166.388738,263.527292 166.388738,262.405564 166.288892,261.290589 C166.288892,261.290589 204.041074,223.209136 166.702006,204.024766 C208.585318,212.611447 256.697105,185.734177 258,185 Z" id="Path" fill="#EDF1F1"></path>
                    <path d="M172.030769,292 C166.939332,282.378617 160.897218,273.321378 154,264.971549 C155.967732,265.320797 157.992385,264.951743 159.723077,263.928346 C160.238081,263.636495 160.772784,263.382948 161.323077,263.169652 C163.056586,262.487801 164.884462,262.093004 166.738462,262 C166.835138,263.104199 166.835138,264.215085 166.738462,265.319283 C166.045033,269.430365 166.648769,273.661538 168.461538,277.395153 C170.338462,281.884089 171.784615,286.562698 174,290.893572 L172.030769,292 Z" id="Path" fill="#EDF1F1"></path>
                    <path d="M112,251.635222 C112,251.635222 145.382484,221.185153 124.285269,181 L124.285269,181 C126.107779,181.479293 127.828835,182.27929 129.36661,183.361955 C130.811546,184.309274 132.526048,184.768258 134.254989,184.670606 C143.498515,193.957452 155.382539,200.216704 168.312841,202.608696 C206.101299,221.759683 167.894756,259.870146 167.894756,259.870146 C165.956932,259.96405 164.046414,260.36267 162.234528,261.051123 C161.659355,261.266484 161.100476,261.522487 160.562188,261.817163 C158.753246,262.850469 156.637053,263.223096 154.580355,262.870467 C153.289758,262.637617 152.081999,262.076772 151.074873,261.242633 C148.511331,258.989129 144.87316,258.393536 141.7162,259.710554 C139.786881,260.497096 137.581605,260.205272 135.92733,258.944515 C112.739689,268.871109 112,251.635222 112,251.635222 Z" id="Path" fill="url(#linearGradient-8)"></path>
                    <path d="M82,193.941651 C82.0063658,196.051122 81.7231517,198.149426 81.1599543,200.16466 C77.2510162,213.004086 70.0146349,208.712356 66.9456339,209.928346 C63.8766329,211.144336 60.4845791,196.480924 60.4845791,196.480924 L60,193.512478 C60.3895472,193.553422 60.7766266,193.410579 61.066074,193.119069 C62.1321481,191.760021 77.2833215,186.395358 82,193.941651 Z" id="Path" fill="url(#linearGradient-9)"></path>
                    <path d="M79.1197077,174.458325 C78.5761709,173.82427 78.1924978,173.538946 78.0006613,173.538946 L78.0006613,173 C78.7495094,173.072073 79.4888223,173.220812 80.2067814,173.443838 C86.2816049,175.314298 92.2285374,177.660298 98.1754699,179.78438 C99.6142439,180.355029 100.861181,181.940164 102.267983,182.066975 C103.674784,182.193786 105.465258,182.542516 107.22376,182.796138 C109.861142,183.328171 112.579566,183.328171 115.216949,182.796138 C117.787652,182.152004 120.47957,182.152004 123.050274,182.796138 L123.050274,182.796138 C144.024401,222.70985 110.836681,252.954236 110.836681,252.954236 C72.8530477,253.746803 72.8850204,243.982369 72.8850204,243.982369 C69.2733356,243.353054 66.08822,241.262891 64.0925127,238.212475 C62.458456,235.985997 61.0854383,233.582238 60,231.047663 C60.5435368,231.745122 75.9863777,250.988668 90.4060904,219.349363 L90.4060904,219.349363 C95.2339765,209.584928 95.3938402,192.623978 79.1197077,174.458325 Z" id="Path" fill="#0C286C"></path>
                    <path d="M81.8367133,193.737109 C81.8367133,183.868333 76.5927026,172 77.8077782,172 C77.9996323,172 78.3513647,172.290258 78.9269269,172.935276 C95.2025456,191.415044 94.9147645,208.669278 90.1823646,218.763811 C86.984797,225.762257 81.2611512,229.342108 77.3920945,227.536057 C67.7993919,223.149934 67,208.185515 67,208.185515 C70.1975675,207.088984 77.2002404,210.926841 81.0692971,199.381018 C81.6083142,197.550053 81.8670994,195.646836 81.8367133,193.737109 L81.8367133,193.737109 Z" id="Path" fill="#EDF1F1"></path>
                    <path d="M75.8261394,227.5946 C79.5696015,229.346438 84.9565349,225.874045 88,219.085673 L88,219.085673 C74.3348415,250.368495 59.5740355,231.317256 59.0566465,230.629034 L59.0566465,230.629034 C57.3071156,226.328055 55.922265,221.879791 54.9175339,217.333835 C53.4808581,211.958034 53.7365475,206.252756 55.6479655,201.035484 C55.8953546,200.084056 56.0483091,199.10931 56.1044853,198.126182 L56.1044853,197.907202 L59.7262088,197 C59.7262088,197 62.7696739,209.825957 65.8131391,208.762341 C66.0566163,208.824907 66.8479172,223.340137 75.8261394,227.5946 Z" id="Path" fill="#01A0C6"></path>
                    <path d="M47.0069005,194.367348 C47.8941173,194.296204 48.7695105,194.098689 49.6117224,193.779623 C47.3342689,190.359349 45.497223,186.600663 44.1540004,182.612856 C43.1616873,177.530768 47.2549788,179.155653 48.1542625,179.60509 C49.0535463,180.054526 53.115828,189.596407 55.5966107,193.433903 C56.8155726,194.190227 58.1517711,194.682881 59.5348532,194.885928 L60,197.755407 L56.3098357,198.757996 L56.3098357,199 L48.092243,198.65428 L46.9138712,198.65428 L47.0069005,194.367348 Z" id="Path" fill="url(#linearGradient-10)"></path>
                    <path d="M34.0720948,190.456361 C31.8317743,188.148695 29.8884008,185.571702 28.2868572,182.784901 C28.2868572,182.784901 25.8305552,179.110335 27.7051014,178.401209 C30.0967639,177.530917 31.2925951,178.014412 33.4256995,180.464122 C36.1405596,183.332862 37.5949489,187.619855 42.4105936,192.100246 C43.8393463,192.984658 45.383743,193.668009 47,194.130927 L47,197.99889 C46.2464093,198.011675 45.4950258,197.913931 44.7699363,197.708793 C40.1158905,196.193841 35.4941643,194.48549 30.8724382,193.09947 L31.8743509,189.876167 C32.5779487,190.165742 33.3169903,190.360845 34.0720948,190.456361 Z" id="Path" fill="url(#linearGradient-11)"></path>
                    <path d="M27.1567923,185.365576 C28.644893,186.938915 30.3772816,188.278713 32.2917324,189.336846 L33,189.576491 L31.9021852,193 L28.5379141,191.972947 C21.171931,189.644962 13.3809874,177.423036 13.3809874,177.423036 C11.3624247,171.740012 17.9139,172.458949 20.1803564,174.478819 L20.1803564,174.478819 C22.1848659,178.291018 24.5186274,181.932863 27.1567923,185.365576 L27.1567923,185.365576 Z" id="Path" fill="url(#linearGradient-12)"></path>
                    <path d="M78.000584,172.088961 C76.7950842,172.088961 82.1246622,184.052258 81.9977675,194 C77.207492,187.14061 62.487705,192.11448 61.4725473,193.284803 C61.1883108,193.549778 60.8082,193.679618 60.4256659,193.642401 C59.010743,193.451471 57.6437831,192.988216 56.3967587,192.277025 C53.8588644,188.766058 49.5444441,179.95613 48.7830758,179.273441 C48.0217075,178.590753 43.7072872,177.322904 44.6907212,182.101721 C46.064867,185.851556 47.9442046,189.385944 50.2740887,192.602115 C49.4124878,192.902141 48.5169416,193.087869 47.6092997,193.154767 C46.0228519,192.687887 44.5069389,191.998686 43.1045373,191.106703 C38.4094328,186.555448 36.9501436,182.264266 34.2853546,179.370968 C32.1915918,176.900287 31.1129867,176.412653 28.6702634,177.290395 C26.7985664,177.973083 29.2412897,181.711613 29.2412897,181.711613 C30.8132955,184.522272 32.7208267,187.121324 34.9198282,189.448746 C34.1508218,189.392404 33.3929776,189.228332 32.667447,188.961111 L32.0329734,188.733549 C30.3179882,187.728766 28.7660963,186.45652 27.43304,184.962509 C25.0338429,181.685703 22.9112648,178.205511 21.0883042,174.559642 C24.2606721,177.582976 26.8937374,175.957528 29.5902501,174.234553 C31.2539425,173.410247 32.4842622,171.883612 32.9596514,170.053651 C33.4350405,168.22369 33.1082526,166.272274 32.0646971,164.709428 C30.7372803,162.619654 29.0996584,160.755033 27.2109742,159.182905 C25.1172114,157.394912 22.6427645,155.932009 20.422107,154.501614 C19.2044715,153.725799 18.130449,152.735252 17.2497391,151.575808 C16.5518181,150.470503 15.6952788,148.682511 16.1076866,147.739751 C16.9917946,146.664092 18.2884637,146.035301 19.6607387,146.016776 C22.888058,145.843648 26.0463797,147.016293 28.416474,149.267672 C35.1012638,155.563712 42.867374,160.534926 51.3209701,163.929213 C55.8281597,165.610677 59.8224033,168.481465 62.9001129,172.251506 C65.5331782,175.502402 65.6283492,175.502402 69.2448486,173.6819 C71.8723606,172.133441 74.8778057,171.388864 77.9054129,171.536309 L78.000584,172.088961 Z" id="Path" fill="#EDF1F1"></path>
                    <path d="M14.3738132,176.760261 C14.3738132,176.760261 21.3779279,187.070441 28,189 C25.6074882,188.463852 23.4595115,187.265811 21.8554812,185.572873 C21.0399387,184.715082 19.9093588,184.15259 18.6717927,183.988907 C12.4954369,183.441719 7.21051401,180.590579 1.47987469,178.891416 C0.497012712,178.584413 -0.113273926,177.696108 0.0175929224,176.762987 C0.148459771,175.829866 0.984628755,175.107559 2.02110174,175.032298 C3.71799307,174.936868 5.42133014,175.053157 7.08316647,175.377891 C9.69379105,175.781082 12.1452312,176.35707 14.3738132,176.760261 Z" id="Path" fill="url(#linearGradient-13)"></path>
                </g>
            </g>
        </g>
    </g>
</svg>