<svg id="Livello_1" data-name="Livello 1" xmlns="http://www.w3.org/2000/svg" viewBox="0 0 618.06 710.81"><defs><style>.cls-1{fill:#1a82b5;}.cls-2{fill:#4d4d4d;}.cls-3{fill:#fff;}.cls-4{fill:none;stroke:#1a82b5;stroke-miterlimit:10;stroke-width:6.08px;}</style></defs><circle class="cls-1" cx="376.68" cy="126.21" r="23.09"/><path class="cls-1" d="M446.73 172.35a23.09 23.09 0 1 1-23.1-23.09 23.08 23.08 0 0 1 23.1 23.09z"/><circle class="cls-1" cx="376.6" cy="218.63" r="23.1"/><path class="cls-1" d="M390.46 65.56a106.73 106.73 0 1 0 106.73 106.73A106.73 106.73 0 0 0 390.46 65.56zm60.07 166.79a84.94 84.94 0 1 1 24.89-60.07 84.64 84.64 0 0 1-24.89 60.07z"/><path class="cls-2" d="M275.59 441l57.43-.13 39.27-.1 18.17-.05 15.65-.04 14.88-.03 51.83-.13 26.97-.06 15.66-.03 9.96-.03 35.84 1.52v4.71l-516.69.96v-4.9l32.27-1.2 6.42-.02 35.03-.09 9.19-.02 21.08-.05 70.46-.17 56.58-.14zM485.14 293.68l46.98 11.21-6.71 6.85-52.59-12.25v-8.74l12.32 2.93z"/><path class="cls-3" d="M525.41 328.82V440.4h-10v-34.74a10.85 10.85 0 0 0-7.58-10.34l-1-.33a5.43 5.43 0 0 0-7.06 5.17v40.29l-27 .06v-141l52.59 12.26z"/><path class="cls-2" d="M515.45 440.4h-15.66v-40.23a5.43 5.43 0 0 1 7.06-5.17l1 .33a10.85 10.85 0 0 1 7.58 10.34zM491.06 256.24l-5.45 4.51-.06-.07-33.97-9.96v-6.35l9.43 2.83 4.62 1.39 6.77 2.04 18.66 5.61z"/><path class="cls-3" d="M485.55 260.68l.06.07-.06.05-.41 32.88-12.32-2.93-21.19 3.48-.05-.3V250.72l33.97 9.96z"/><path class="cls-2" d="M451.53 220.94h-.03l-.02-5.34 24.23 7.85v1.88l-3.42 2.54-20.76-6.93z"/><path class="cls-2" d="M475.71 223.45l-24.23-7.85-22.09 5.21 22.09-13.05 24.23 15.69zM472.82 440.4v.12l-51.83.13V307.26h.1l51.5-7.77h.24zm-14.47-100.61v-27l-7.31 1v26.66zm-18.77 59.1l-.17-26.24-6.93.42v26.35z"/><path class="cls-3" d="M472.82 290.75v8.74h-.23l-51.5 7.77h-.1v-8.01l30.64-5.02 21.19-3.48zM472.29 227.87l.11 22.76-6.77-2.04v-14.1l-4.62-1.31v14.02l-9.43-2.83v-.09l-.08-23.34h.03l20.76 6.93z"/><path class="cls-2" d="M465.63 234.49v14.1l-4.62-1.39v-14.02l4.62 1.31zM451.58 293.93l.05.3-30.64 5.02 5.2-3.85v-23.14l-6.73-1.78v-13.05l32.12-6.66v43.16z"/><path class="cls-3" d="M451.58 250.72v.05l-32.12 6.66v-6.1l13.45-2.95 18.67-4.1V250.72z"/><path class="cls-2" d="M451.5 220.94l.08 23.34-18.67 4.1v-23.07l18.59-4.37z"/><path class="cls-3" d="M451.5 220.94l-18.59 4.37v-.26l-3.52-2.61v-1.63l22.09-5.21.02 5.34zM426.19 280.98v14.42l-5.2 3.85v.01l-50.11-10.88-.2-21.23 55.51 13.83z"/><path class="cls-2" d="M426.19 272.26v8.72l-55.51-13.83-.09-9.65 48.87 12.98 6.73 1.78zM426.19 246.01l-6.73 3.72-49.07-13.9-.07-7.08 55.87 17.26z"/><path class="cls-3" d="M421 440.4v.26h-14.88v-23.89c0-3.21-3.07-6.06-7.58-7l-1-.22c-3.49-.75-7 1-7 3.52v27.68h-18.17v-.37l-1.42-152L421 299.27V440.4zM403 344v-24.71l-8.92-1.62v25.1zM419.46 257.43v13.05l-48.87-12.98-.2-21.67 49.07 13.9V257.43z"/><path class="cls-2" d="M406.11 416.77v23.91h-15.65V413c0-2.5 3.56-4.26 7-3.52l1 .22c4.54 1.01 7.65 3.86 7.65 7.07zM403 319.29v24.68l-8.92-1.2v-25.1l8.92 1.62zM372.29 440.4v.37l-39.27.1V295.09l37.85-6.71zm-14.1-114.12v-24.56l-9.5 1.55v24.38z"/><path class="cls-2" d="M370.68 267.15l.2 21.23-37.86 6.71v-20.4l37.3-7.63.36.09z"/><path class="cls-3" d="M370.59 257.5l.09 9.65-.36-.09-37.3 7.63v-9.16l37.3-8.1.27.07z"/><path class="cls-2" d="M370.39 235.83l.2 21.67-.27-.07-37.3 8.1v-13.21l5.58-5.57v-3.13l31.72-7.81.07.02z"/><path class="cls-3" d="M370.32 228.75l.07 7.08-.07-.02-31.72 7.81v-7.41l31.72-7.46zM338.6 243.62v3.13l-5.58 5.57-57.43-13.84v-33.02l63.01 17.88v20.28z"/><path class="cls-2" d="M275.59 205.45v-4.52l.04-.02L314.07 212l24.53 7.07v4.27l-63.01-17.88v-.01z"/><path class="cls-3" d="M333 265.53v175.34l-57.44.13V238.48L333 252.32zm-20 83.41v-21.23l-8-1.07v21.11zm0-62.64v-22.17l-11.85-2.3v22.06z"/><path class="cls-2" d="M318.05 166.84v2.17l-4.04 3.3-.09.07-38.33-12.95v-7.65l18.81 6.68 23.65 8.38z"/><path class="cls-3" d="M275.63 200.91v-41.48l38.33 13 .1-.08.06.08V212zm28.51 8v-21.65l-7.95-2.51v21.91z"/><path class="cls-2" d="M313.06 327.71v21.23l-7.96-1.19v-21.11l7.96 1.07zM313.06 264.13v22.17l-11.85-2.42v-22.06l11.85 2.31zM304.15 187.26v21.66l-7.95-2.26v-21.91l7.95 2.51zM296.2 130.84v.98l-1.8 1.52-16.86-6.3-1.95-.73v-3.21l1.95.73 18.66 7.01z"/><path class="cls-2" d="M296.2 130.84l-18.66-7.01-1.95-.73-17.59 6.6 17.59-12.31 20.61 13.45z"/><path class="cls-3" d="M294.4 158.45v.01l-18.81-6.68v-25.47l1.95.73 16.86 6.3v25.11z"/><path class="cls-2" d="M275.59 238.48V441l-56.58.14-.79-140.3-.07-11.79L218 272v-7.6l-.06-10 57.45-15.94zm-19.42 113v-23.21l-8.48 1.27.51 22.75zm-2.09-66.29v-23.37l-11.85 2.3v22.95zm-13.29 138.9V403l-11.45.94v20.92zm-2.12-69.84v-23.2l-7.79 1.18-.18 22.85z"/><path class="cls-2" d="M275.59 205.46v33.02l-.2-.05-57.44 15.94-5.29-7.62v-23.46l62.93-17.84v.01zM275.59 200.9v.03l-7.28 2.1v-21.78l-7.95 2.5v21.57L237.19 212l.07-39.71 38.33-12.86v41.47zM275.59 126.31v25.47l-18.63 6.57-.19-.55v-24.46l18.82-7.03zM218.22 300.84l.79 140.3-70.46.17V314h.18l69.32-13.2zm-19.47 108.88v-18.84l-3.88.34v18.72zm0-35.4v-19.53l-3.88.49v19.47zm-10.09 1.47v-19.54l-3.88.56v19.47zm-9.21 35.4v-18.52l-3.88.3v18.53zm-.67-34l.2-19.69-3.88.53v19.5zm-9.2 34.7v-18.47l-3.88.36v18.41zm-9.21-33.41v-18.77l-3.87.52V379zM218.04 271.96l.11 17.09H218l-50.95 10.68.07-17.24h.07l50.76-10.53h.09zM134.78 238.73l15.43 3.52 17.86 4.07v2.3l-2.53 3.2-37.99-7.81-.13.04v-6.97l.05-.02 7.31 1.67z"/><path class="cls-2" d="M143.8 271.8l8.38 1.51 13.14 2.38 1.83.32-.03 6.48-39.65-6.45v-7.19l16.33 2.95z"/><path class="cls-2" d="M152.18 258.04v15.27l-8.38-1.51v-15.12l8.38 1.36zM152.18 224.17v1.28l-1.8 1.43-15.6-3.43v-3.02l17.4 3.74z"/><path class="cls-2" d="M152.18 224.17l-17.4-3.74-9.06 3.14 13.41-9.6 13.05 10.2z"/><path class="cls-3" d="M148.55 441.3h-21.08V335.22l21.08 2.26zm-9.72-50v-20.2l-4.19-.37V391zm0-34.67v-14.34l-4.19-.3v14.19z"/><path class="cls-2" d="M148.55 303.62v10.43l-21.08-2.59V300.7l21.08 2.92zM138.82 371.09v20.21l-4.18-.28v-20.3l4.18.37zM138.82 342.29v14.34l-4.18-.44V342l4.18.29zM134.78 223.45v15.28l-7.31-1.67-.05.02v-.86l.09-10.14 7.27-2.63z"/><path class="cls-3" d="M134.78 220.43v3.02l-7.27 2.63-1.79-1.53v-.98l9.06-3.14z"/><path class="cls-2" d="M127.46 441.14v.22h-9.19v-16.21a14.79 14.79 0 0 0-18-14.47 21.69 21.69 0 0 0-17 21.17v9.62h-6.42v-98.1l50.63-8.16z"/><path class="cls-2" d="M127.47 311.46v23.76l-50.64 8.15-6.81-5.57v-15.65l57.45-10.69z"/><path class="cls-3" d="M127.47 300.7v10.76l-57.45 10.69v-8.42l18.96-4.3 38.49-8.73z"/><path class="cls-2" d="M127.47 293.89v6.81l-38.49 8.73V285.1l38.49-9.06v17.85z"/><path class="cls-3" d="M127.47 268.85v7.19l-38.49 9.06-4.13-3.39v-2.16l24.2-6.12v-.01l18.42-4.66v.09z"/><path class="cls-2" d="M127.47 265.21v3.55l-18.42 4.66-.05-.17v-23.61l18.42-5.59v21.12l.05.04z"/><path class="cls-3" d="M127.42 237.08v6.97L109 249.64l-4.13-3.39v-2.16l22.55-7.01z"/><path class="cls-2" d="M54.4 569.07v7.2h11.06l1.27 5.08H54.4v12.28h-5.09V564h20v5.08zM76.27 569.07v7.2h11.06l1.27 5.08H76.27v7.2h14.88v5.08h-20V564h20v5.08zM115.65 574.62a10.47 10.47 0 0 1-.45 3.07 10.85 10.85 0 0 1-1.23 2.69 10.55 10.55 0 0 1-1.91 2.22 10.3 10.3 0 0 1-2.48 1.63l6.06 9.4h-6.06l-5.38-8.34h-3.48l2.08-5.08h2.2a5.38 5.38 0 0 0 3.94-1.65 6 6 0 0 0 1.19-1.82 5.52 5.52 0 0 0-1.19-6 5.39 5.39 0 0 0-3.94-1.65h-6v24.56h-5.1V564H105a10.17 10.17 0 0 1 4.13.85 10.85 10.85 0 0 1 5.66 5.65 10.13 10.13 0 0 1 .86 4.12zM140.15 574.62a10.47 10.47 0 0 1-.45 3.07 10.85 10.85 0 0 1-1.23 2.69 10.55 10.55 0 0 1-1.91 2.22 10.3 10.3 0 0 1-2.48 1.63l6.06 9.4h-6.06l-5.38-8.34h-3.48l2.08-5.08h2.2a5.38 5.38 0 0 0 3.94-1.65 6 6 0 0 0 1.19-1.82 5.52 5.52 0 0 0-1.19-6 5.39 5.39 0 0 0-3.94-1.65h-6v24.56h-5.1V564h11.11a10.17 10.17 0 0 1 4.13.85 10.85 10.85 0 0 1 5.66 5.65 10.13 10.13 0 0 1 .85 4.12zM174.23 593.63h-5.59l-2.29-5.08-2.29-5.08-6-13.3-6 13.3h7.71l2.29 5.08h-12.33l-2.29 5.08h-5.59L155.24 564h5.59zM197.88 574.62a10.47 10.47 0 0 1-.45 3.07 10.85 10.85 0 0 1-1.23 2.69 10.55 10.55 0 0 1-1.91 2.22 10.3 10.3 0 0 1-2.48 1.63l6.06 9.4h-6.06l-5.38-8.34H183l2-5.09h2.2a5.38 5.38 0 0 0 3.94-1.65 6 6 0 0 0 1.19-1.82 5.52 5.52 0 0 0-1.19-6 5.39 5.39 0 0 0-3.94-1.65h-6v24.56h-5.09V564h11.11a10.17 10.17 0 0 1 4.13.85 10.85 10.85 0 0 1 5.66 5.65 10.13 10.13 0 0 1 .87 4.12zM232 593.63h-5.59l-2.29-5.08-2.29-5.08-6-13.3-6 13.3h7.71l2.29 5.08h-12.37l-2.29 5.08h-5.59L213 564h5.59zM254.25 585.58q-.72.8-1.42 1.52l-1.38 1.44h9.79v5.08h-18.69v-3.56l1-.89 2.2-2.12 2.21-2.22q1.23-1.25 2.54-2.69 2.42-2.58 3.73-4.32a29.67 29.67 0 0 0 1.93-2.79 8.13 8.13 0 0 0 .74-1.5 4.76 4.76 0 0 0 .1-.53 4.49 4.49 0 0 0-.36-1.78 4.4 4.4 0 0 0-1-1.46 4.85 4.85 0 0 0-1.48-1 4.51 4.51 0 0 0-1.78-.36 4.46 4.46 0 0 0-1.8.36 4.91 4.91 0 0 0-1.46 1 4.39 4.39 0 0 0-1 1.46 4.49 4.49 0 0 0-.36 1.78h-5.09a9.42 9.42 0 0 1 .74-3.71 9.69 9.69 0 0 1 2.1-3.11 9.08 9.08 0 0 1 3.14-2.12 10 10 0 0 1 7.46 0 9.07 9.07 0 0 1 3.14 2.12 9.71 9.71 0 0 1 2.1 3.11 9.44 9.44 0 0 1 .74 3.71 7.13 7.13 0 0 1-.66 2.79 20.31 20.31 0 0 1-2.06 3.51 58.08 58.08 0 0 1-5.12 6.28zM276 563.39a8.85 8.85 0 0 1 8.1 4.51 15.92 15.92 0 0 1 1.8 4.91 30 30 0 0 1 .57 6 32.36 32.36 0 0 1-.53 6 15 15 0 0 1-1.76 4.89 9.47 9.47 0 0 1-16.36 0 15.15 15.15 0 0 1-1.76-4.89 32 32 0 0 1-.53-6 33.73 33.73 0 0 1 .51-6 15.15 15.15 0 0 1 1.72-4.91 9 9 0 0 1 3.22-3.3 9.62 9.62 0 0 1 5.02-1.21zm5 20.41a22.58 22.58 0 0 0 .32-2.35q.11-1.25.11-2.65a25.79 25.79 0 0 0-.42-5 15.44 15.44 0 0 0-.51-1.82 6.58 6.58 0 0 0-.72-1.48 4.37 4.37 0 0 0-1.4-1.52 5.9 5.9 0 0 0-4.79 0 3.74 3.74 0 0 0-1.36 1.44 11.77 11.77 0 0 0-1.06 2.9 23 23 0 0 0-.51 5.48q0 1.4.11 2.65a22.32 22.32 0 0 0 .32 2.35 11.65 11.65 0 0 0 1.19 3.3 4.09 4.09 0 0 0 1.36 1.48 5 5 0 0 0 2.42.51 4.88 4.88 0 0 0 2.42-.51 3.57 3.57 0 0 0 1.4-1.48 10 10 0 0 0 1.03-3.3zM302.53 564v29.64h-5.09v-23.56l-4.44 4.49-3.6-3.6 7-7zM326.18 573.09a9 9 0 0 1-1.48 5.08l-9.07 15.46h-5.93l6.4-10.84a9.92 9.92 0 0 1-3.5-.8 9.49 9.49 0 0 1-3-2 9.68 9.68 0 0 1-2.84-6.86 9.42 9.42 0 0 1 .74-3.71 10.18 10.18 0 0 1 2.1-3.15 9.7 9.7 0 0 1 6.87-2.84 9.46 9.46 0 0 1 3.71.74 9.59 9.59 0 0 1 5.26 5.25 9.44 9.44 0 0 1 .74 3.67zm-14.33 0a4.44 4.44 0 0 0 .36 1.8 4.75 4.75 0 0 0 2.46 2.46 4.46 4.46 0 0 0 1.8.36 4.51 4.51 0 0 0 1.78-.36 4.69 4.69 0 0 0 2.48-2.46 4.47 4.47 0 0 0 .36-1.8 4.52 4.52 0 0 0-.36-1.78 4.63 4.63 0 0 0-2.48-2.48 4.51 4.51 0 0 0-1.78-.36 4.46 4.46 0 0 0-1.8.36 4.71 4.71 0 0 0-1.46 1 4.62 4.62 0 0 0-1 1.48 4.48 4.48 0 0 0-.36 1.78z"/><path class="cls-1" d="M352.42 563.35a15.09 15.09 0 0 1 6 1.21 15.4 15.4 0 0 1 8.22 8.21 15.46 15.46 0 0 1 0 12 15.4 15.4 0 0 1-8.22 8.21 15.5 15.5 0 0 1-12 0 15.41 15.41 0 0 1-8.22-8.21 15.46 15.46 0 0 1 0-12 15.41 15.41 0 0 1 8.22-8.21 15.09 15.09 0 0 1 6-1.21zm0 5.08a10.07 10.07 0 0 0-3.94.78 10.7 10.7 0 0 0-5.62 5.61 10 10 0 0 0-.78 3.94 10.19 10.19 0 0 0 .78 4 10.31 10.31 0 0 0 2.27 3.37 10.1 10.1 0 0 0 3.35 2.24 10.3 10.3 0 0 0 3.94.76 10.47 10.47 0 0 0 4-.76 10.32 10.32 0 0 0 5.62-5.61 10.44 10.44 0 0 0 .76-4 10.29 10.29 0 0 0-.76-3.94 10.12 10.12 0 0 0-2.25-3.34 10.35 10.35 0 0 0-3.37-2.27 10.23 10.23 0 0 0-4-.78zM396.12 589.65a15.69 15.69 0 0 1-4.92 3.35 15.56 15.56 0 0 1-12 0 15.41 15.41 0 0 1-8.22-8.21 15.46 15.46 0 0 1 0-12 15.41 15.41 0 0 1 8.22-8.21 15.57 15.57 0 0 1 12 0 15.7 15.7 0 0 1 4.92 3.32l-3.6 3.6a10.42 10.42 0 0 0-3.35-2.27 10.18 10.18 0 0 0-4-.78 10.07 10.07 0 0 0-3.94.78 10.7 10.7 0 0 0-5.62 5.61 10 10 0 0 0-.78 3.94 10.19 10.19 0 0 0 .78 4 10.3 10.3 0 0 0 2.27 3.37 10.1 10.1 0 0 0 3.35 2.24 10.3 10.3 0 0 0 3.94.76 10.42 10.42 0 0 0 4-.76 10.12 10.12 0 0 0 3.35-2.24zM419.9 569.07h-8.69v24.56h-5.09v-24.56h-8.73V564h22.51zM442.62 585.58q-.72.8-1.42 1.52l-1.38 1.44h9.79v5.08h-18.69v-3.56l1-.89 2.2-2.12 2.21-2.22q1.23-1.25 2.54-2.69 2.42-2.58 3.73-4.32a29.67 29.67 0 0 0 1.9-2.82 8.13 8.13 0 0 0 .74-1.5 4.76 4.76 0 0 0 .13-.49 4.49 4.49 0 0 0-.36-1.78 4.4 4.4 0 0 0-1-1.46 4.85 4.85 0 0 0-1.48-1 4.51 4.51 0 0 0-1.78-.36 4.46 4.46 0 0 0-1.8.36 4.91 4.91 0 0 0-1.46 1 4.39 4.39 0 0 0-1 1.46 4.49 4.49 0 0 0-.36 1.78H431a9.42 9.42 0 0 1 .74-3.71 9.69 9.69 0 0 1 2.1-3.11 9.08 9.08 0 0 1 3.14-2.12 10 10 0 0 1 7.46 0 9.07 9.07 0 0 1 3.14 2.12 9.71 9.71 0 0 1 2.1 3.11 9.44 9.44 0 0 1 .74 3.71 7.13 7.13 0 0 1-.66 2.79 20.31 20.31 0 0 1-2.06 3.51 58.08 58.08 0 0 1-5.08 6.27zM466.57 564v29.64h-5.09v-23.56l-4.48 4.49-3.6-3.6 7-7zM480.13 580.92v-5.08h16.49v5.08zM521 585.58q-.72.8-1.42 1.52l-1.38 1.44h9.8v5.08h-18.67v-3.56l1-.89 2.2-2.12 2.21-2.22q1.23-1.25 2.54-2.69 2.42-2.58 3.73-4.32a29.67 29.67 0 0 0 1.93-2.79 8.13 8.13 0 0 0 .74-1.5 4.76 4.76 0 0 0 .13-.49 4.49 4.49 0 0 0-.36-1.78 4.4 4.4 0 0 0-1-1.46 4.85 4.85 0 0 0-1.48-1 4.51 4.51 0 0 0-1.78-.36 4.46 4.46 0 0 0-1.8.36 4.91 4.91 0 0 0-1.46 1 4.39 4.39 0 0 0-1 1.46 4.49 4.49 0 0 0-.36 1.78h-5.09a9.42 9.42 0 0 1 .74-3.71 9.69 9.69 0 0 1 2.1-3.11 9.08 9.08 0 0 1 3.14-2.12 10 10 0 0 1 7.46 0 9.07 9.07 0 0 1 3.14 2.12 9.71 9.71 0 0 1 2.1 3.11 9.44 9.44 0 0 1 .74 3.71 7.13 7.13 0 0 1-.66 2.79 20.31 20.31 0 0 1-2.06 3.51 58.08 58.08 0 0 1-5.18 6.24zM545 569.07h-13.58V564h17.51l3 3-14.67 26.63h-5.81z"/><path class="cls-4" d="M47.83 537.2h513.43"/><path class="cls-1" d="M71.42 473.6a17.32 17.32 0 0 1 9.14 9 16.13 16.13 0 0 1 1.36 6.6 16.35 16.35 0 0 1-1.36 6.63 17.22 17.22 0 0 1-9.14 9.07 16.69 16.69 0 0 1-6.68 1.35h-6.82l3.34-8.12h3.48a8.69 8.69 0 0 0 6.34-2.64 8.56 8.56 0 0 0 2.66-6.29 8.2 8.2 0 0 0-2.66-6.2 8.69 8.69 0 0 0-6.34-2.64h-9.62v39.25h-8.18v-47.37h17.8a16.71 16.71 0 0 1 6.68 1.36zM86 519.62v-47.38h8.18v47.37zM115.95 484.83a17.83 17.83 0 0 1 7 1.39 17.91 17.91 0 0 1 9.58 9.51 17.91 17.91 0 0 1 0 13.87 18.06 18.06 0 0 1-33.21 0 17.9 17.9 0 0 1 0-13.87 17.94 17.94 0 0 1 16.6-10.9zm0 8.12a9.51 9.51 0 0 0-7 2.84 9.67 9.67 0 0 0 0 13.74 8.82 8.82 0 0 0 3.17 2.13 10.25 10.25 0 0 0 3.78.71 10 10 0 0 0 3.75-.71 9.59 9.59 0 0 0 3.21-2.13 9.67 9.67 0 0 0 0-13.74 9.81 9.81 0 0 0-6.91-2.79zM154.88 484.83a14.39 14.39 0 0 1 6.07 1.25 13.92 13.92 0 0 1 4.67 3.45 15.8 15.8 0 0 1 3 5.11 18.12 18.12 0 0 1 1.06 6.23v18.75h-8.18v-18.75a7.37 7.37 0 0 0-2.39-5.62 7.65 7.65 0 0 0-5.59-2.3 7.73 7.73 0 0 0-5.66 2.3 7.61 7.61 0 0 0-2.32 5.62v18.75h-8.18v-33.84h8.18v2.57a16.18 16.18 0 0 1 4.16-2.54 13.19 13.19 0 0 1 5.18-.98zM199.67 506.76h-17.86a8.4 8.4 0 0 0 2 2.77 9.59 9.59 0 0 0 3.21 2.13 10 10 0 0 0 3.75.71 9.62 9.62 0 0 0 5-1.29l8.52 3.38a17.17 17.17 0 0 1-5.93 4.43 18 18 0 0 1-7.57 1.59 17.81 17.81 0 0 1-7-1.39 17.9 17.9 0 0 1-9.58-9.51 17.9 17.9 0 0 1 0-13.87 18.18 18.18 0 0 1 23.63-9.51 17.91 17.91 0 0 1 9.58 9.51 17.46 17.46 0 0 1 1.4 7 16.61 16.61 0 0 1-.48 4.06zM190.74 493a9.81 9.81 0 0 0-7 2.84 9.16 9.16 0 0 0-2 2.84h17.86a9.2 9.2 0 0 0-2-2.84 9.51 9.51 0 0 0-6.86-2.84z"/><path class="cls-2" d="M267.52 513.25a25.23 25.23 0 0 1-7.91 5.31 25.18 25.18 0 0 1-19.33 0A24.7 24.7 0 0 1 227 505.44a24.57 24.57 0 0 1 0-19.15 24.7 24.7 0 0 1 13.23-13.13 25.18 25.18 0 0 1 19.33 0 25.23 25.23 0 0 1 7.91 5.31l-5.8 5.75a16.78 16.78 0 0 0-5.39-3.62 16.49 16.49 0 0 0-6.41-1.25 16.31 16.31 0 0 0-6.34 1.25 16.76 16.76 0 0 0-5.39 3.62 16.59 16.59 0 0 0-3.65 5.35 16 16 0 0 0-1.26 6.29 16.2 16.2 0 0 0 1.26 6.33 16.47 16.47 0 0 0 3.65 5.38 16.26 16.26 0 0 0 5.39 3.59 16.68 16.68 0 0 0 6.34 1.22 16.87 16.87 0 0 0 6.41-1.22 16.28 16.28 0 0 0 5.39-3.59zM286.54 484.83a17.83 17.83 0 0 1 7 1.39 17.91 17.91 0 0 1 9.58 9.51 17.91 17.91 0 0 1 0 13.87 18.06 18.06 0 0 1-33.21 0 17.9 17.9 0 0 1 0-13.87 17.94 17.94 0 0 1 16.6-10.9zm0 8.12a9.51 9.51 0 0 0-7 2.84 9.67 9.67 0 0 0 0 13.74 8.82 8.82 0 0 0 3.17 2.13 10.25 10.25 0 0 0 3.78.71 10 10 0 0 0 3.75-.71 9.59 9.59 0 0 0 3.21-2.13 9.67 9.67 0 0 0 0-13.74 9.81 9.81 0 0 0-6.91-2.79zM325.47 484.83a14.39 14.39 0 0 1 6.07 1.25 13.92 13.92 0 0 1 4.67 3.45 15.8 15.8 0 0 1 3 5.11 18.12 18.12 0 0 1 1.06 6.23v18.75h-8.18v-18.75a7.37 7.37 0 0 0-2.39-5.62 7.65 7.65 0 0 0-5.59-2.3 7.73 7.73 0 0 0-5.66 2.3 7.61 7.61 0 0 0-2.32 5.62v18.75H308v-33.84h8.18v2.57a16.18 16.18 0 0 1 4.16-2.54 13.19 13.19 0 0 1 5.13-.98zM356.94 481a8.82 8.82 0 0 0-2.59 1.73 8.49 8.49 0 0 0-1.81 2.54 7.32 7.32 0 0 0-.68 3.15h4.84l2 8.12h-6.89v23.08h-8.18v-31.2a16.84 16.84 0 0 1 1.29-6.19 16.32 16.32 0 0 1 8.86-8.76 16.51 16.51 0 0 1 6.27-1.22v8.12a7.8 7.8 0 0 0-3.11.63zM387 506.76h-17.89a8.4 8.4 0 0 0 2 2.77 9.59 9.59 0 0 0 3.21 2.13 10 10 0 0 0 3.75.71 9.62 9.62 0 0 0 5-1.29l8.52 3.38a17.17 17.17 0 0 1-5.93 4.43 18 18 0 0 1-7.66 1.61 17.81 17.81 0 0 1-7-1.39 17.9 17.9 0 0 1-9.58-9.51 17.9 17.9 0 0 1 0-13.87 18.18 18.18 0 0 1 23.63-9.51 17.91 17.91 0 0 1 9.58 9.51 17.46 17.46 0 0 1 1.4 7 16.61 16.61 0 0 1-.48 4.06zM378 493a9.81 9.81 0 0 0-7 2.84 9.16 9.16 0 0 0-2 2.84h18a9.2 9.2 0 0 0-2-2.84 9.51 9.51 0 0 0-7-2.84zM412.31 485.78a14.08 14.08 0 0 1 5.49-1v8.12a9.5 9.5 0 0 0-7 2.84 9.66 9.66 0 0 0-2.86 6.9v17h-8.18v-33.93H408v2.64a17.54 17.54 0 0 1 4.31-2.57zM445.34 506.76h-17.86a8.4 8.4 0 0 0 2 2.77 9.59 9.59 0 0 0 3.21 2.13 10 10 0 0 0 3.75.71 9.62 9.62 0 0 0 5-1.29l8.52 3.38a17.17 17.17 0 0 1-5.93 4.43 18 18 0 0 1-7.57 1.59 17.81 17.81 0 0 1-7-1.39 17.9 17.9 0 0 1-9.58-9.51 17.9 17.9 0 0 1 0-13.87 18.18 18.18 0 0 1 23.63-9.51 17.91 17.91 0 0 1 9.58 9.51 17.46 17.46 0 0 1 1.4 7 16.61 16.61 0 0 1-.48 4.06zM436.41 493a9.81 9.81 0 0 0-7 2.84 9.16 9.16 0 0 0-2 2.84h17.86a9.2 9.2 0 0 0-2-2.84 9.51 9.51 0 0 0-6.86-2.84zM475.34 484.83a14.39 14.39 0 0 1 6.07 1.25 13.92 13.92 0 0 1 4.67 3.45 15.8 15.8 0 0 1 3 5.11 18.12 18.12 0 0 1 1.06 6.23v18.75H482v-18.75a7.37 7.37 0 0 0-2.39-5.62A7.65 7.65 0 0 0 474 493a7.73 7.73 0 0 0-5.66 2.3 7.61 7.61 0 0 0-2.32 5.62v18.75h-8.18v-33.89H466v2.57a16.18 16.18 0 0 1 4.16-2.54 13.19 13.19 0 0 1 5.18-.98zM524 515.29a18 18 0 0 1-5.73 3.82 18.46 18.46 0 0 1-14 0 17.9 17.9 0 0 1-9.58-9.51 17.9 17.9 0 0 1 0-13.87 18.18 18.18 0 0 1 23.63-9.51A18 18 0 0 1 524 490l-5.8 5.75a9.51 9.51 0 0 0-7-2.84 9.81 9.81 0 0 0-7 2.84 9.67 9.67 0 0 0 0 13.74 9.59 9.59 0 0 0 3.21 2.13 10 10 0 0 0 3.75.71 9.36 9.36 0 0 0 7-2.84z"/><path class="cls-2" d="M550.82 506.76H533a8.4 8.4 0 0 0 2 2.77 9.59 9.59 0 0 0 3.21 2.13 10 10 0 0 0 3.75.71 9.62 9.62 0 0 0 5-1.29l8.52 3.38a17.17 17.17 0 0 1-5.93 4.43 18 18 0 0 1-7.57 1.59 17.81 17.81 0 0 1-7-1.39 17.9 17.9 0 0 1-9.58-9.51 17.9 17.9 0 0 1 0-13.87 18.18 18.18 0 0 1 23.63-9.51 17.91 17.91 0 0 1 9.58 9.51 17.46 17.46 0 0 1 1.4 7 16.61 16.61 0 0 1-.48 4.06zM541.89 493a9.81 9.81 0 0 0-7 2.84 9.16 9.16 0 0 0-2 2.84h17.86a9.2 9.2 0 0 0-2-2.84 9.51 9.51 0 0 0-6.86-2.84z"/></svg>